<svg id="Layer_1" data-name="Layer 1" xmlns="http://www.w3.org/2000/svg" viewBox="0 0 614.48 328.02"><defs><style>.cls-1{fill:#1a1a1c;}.cls-2{fill:#0e0e0f;}.cls-3{fill:#e3e3e7;}.cls-4{fill:#79797c;}</style></defs><path class="cls-1" d="M609.34,137.39c-3.48-5.33-8.43-10.1-14.82-14.68a183,183,0,0,0-21.17-12.63c-3.46-1.83-7-3.62-10.51-5.41q-6.3-3.19-12.64-6.35L417.84,32.14q-6.33-3.16-12.69-6.32c-3.59-1.77-7.18-3.53-10.83-5.26A253.48,253.48,0,0,0,369.06,10a172.7,172.7,0,0,0-29.36-7.4,206.08,206.08,0,0,0-64.92,0A172.24,172.24,0,0,0,245.44,10,250.62,250.62,0,0,0,220.17,20.6c-3.66,1.73-7.25,3.49-10.84,5.26Q203,29,196.64,32.18L103.05,79,64.24,98.32,51.6,104.66c-3.53,1.8-7.05,3.6-10.51,5.42-1.89,1-3.75,2-5.6,3a152,152,0,0,0-15.58,9.62A63.53,63.53,0,0,0,8,133.47a42.16,42.16,0,0,0-2.88,3.9,30.86,30.86,0,0,0-4.82,12.1A26,26,0,0,0,0,153.6v20.78a29.59,29.59,0,0,0,5.15,16.23c3.47,5.33,8.42,10.09,14.81,14.68a183,183,0,0,0,21.17,12.63c3.46,1.83,7,3.62,10.51,5.42,4.19,2.12,8.42,4.23,12.64,6.34l57.64,28.82,74.72,37.36c4.23,2.11,8.45,4.22,12.7,6.32q5.37,2.65,10.82,5.26A252,252,0,0,0,245.42,318a171.55,171.55,0,0,0,29.36,7.41,206.14,206.14,0,0,0,64.93,0,172.24,172.24,0,0,0,29.34-7.4,250.62,250.62,0,0,0,25.27-10.59c3.64-1.73,7.24-3.49,10.83-5.26,4.24-2.09,8.47-4.21,12.69-6.32l132.4-66.15c4.22-2.11,8.45-4.22,12.64-6.35,3.53-1.79,7-3.59,10.51-5.41a181.84,181.84,0,0,0,21.18-12.64c6.38-4.58,11.33-9.34,14.81-14.67.38-.58.73-1.17,1.06-1.75.08-.15.17-.29.24-.43.33-.59.64-1.17.92-1.76l.06-.13c.27-.56.51-1.12.74-1.68a1.37,1.37,0,0,1,.17-.43c.23-.59.44-1.18.63-1.78a1.87,1.87,0,0,0,.07-.22c.17-.54.32-1.08.45-1.63a2.13,2.13,0,0,1,.1-.42c0-.11.06-.21.08-.32.11-.5.2-1,.28-1.5v-.25c.08-.53.14-1.07.19-1.6v-.49c0-.61.07-1.23.07-1.84V153.62A29.57,29.57,0,0,0,609.34,137.39Zm3.82,24.5h0"/><path class="cls-2" d="M614.4,155.45v.49a11,11,0,0,1-.18,1.61,1,1,0,0,0,0,.25c-.08.49-.18,1-.29,1.48a.61.61,0,0,1-.07.34,1.43,1.43,0,0,0-.1.42c-.12.48-.26,1-.4,1.46v.16a2,2,0,0,1-.07.23h0c-.09.28-.2.56-.3.84s-.21.63-.33.94c-.06.14-.12.28-.17.43h0c-.23.56-.47,1.12-.74,1.67h0l-.06.13h0c-.28.59-.59,1.18-.92,1.76h0l-.24.43c-.33.59-.68,1.17-1.06,1.76-3.48,5.32-8.43,10.09-14.81,14.67a183.25,183.25,0,0,1-21.18,12.64c-3.46,1.82-7,3.62-10.52,5.41-4.18,2.12-8.41,4.23-12.63,6.35L417.84,275.1q-6.33,3.16-12.69,6.31c-3.59,1.77-7.19,3.53-10.83,5.26a250.62,250.62,0,0,1-25.27,10.59,173.21,173.21,0,0,1-29.34,7.41,206.14,206.14,0,0,1-64.93,0,173.67,173.67,0,0,1-29.36-7.41,252.78,252.78,0,0,1-25.26-10.59q-5.46-2.6-10.82-5.25c-4.25-2.1-8.47-4.21-12.7-6.32l-74.72-37.37L64.24,208.92c-4.22-2.12-8.45-4.23-12.64-6.35-3.53-1.79-7.05-3.59-10.51-5.42a183,183,0,0,1-21.17-12.62c-6.39-4.59-11.34-9.35-14.81-14.68A29.62,29.62,0,0,1,0,153.61V174.4a29.59,29.59,0,0,0,5.15,16.23c3.47,5.33,8.42,10.09,14.81,14.68a183,183,0,0,0,21.17,12.63c3.46,1.83,7,3.62,10.51,5.42,4.19,2.12,8.42,4.23,12.64,6.34l57.64,28.82,74.72,37.36c4.23,2.11,8.45,4.22,12.7,6.32q5.35,2.66,10.82,5.26A254.17,254.17,0,0,0,245.42,318a173.67,173.67,0,0,0,29.36,7.41,206.14,206.14,0,0,0,64.93,0,172.24,172.24,0,0,0,29.34-7.4,250.62,250.62,0,0,0,25.27-10.59c3.64-1.73,7.24-3.49,10.83-5.26,4.24-2.09,8.47-4.21,12.69-6.32l132.4-66.15c4.22-2.11,8.45-4.22,12.63-6.35,3.54-1.79,7.06-3.59,10.52-5.41a181.84,181.84,0,0,0,21.18-12.64c6.38-4.58,11.33-9.34,14.81-14.67.38-.58.73-1.17,1.06-1.75l.24-.43c.33-.59.64-1.17.92-1.76l.06-.13c.27-.56.51-1.12.74-1.68a1.37,1.37,0,0,1,.17-.43c.23-.59.44-1.18.63-1.78a1.87,1.87,0,0,0,.07-.22c.17-.54.32-1.08.45-1.63a2.13,2.13,0,0,1,.1-.42c0-.11.06-.21.08-.32.11-.5.2-1,.28-1.5v-.25c.08-.53.14-1.07.18-1.61v-.48c0-.61.08-1.23.08-1.84V153.61A12.53,12.53,0,0,1,614.4,155.45Z"/><path class="cls-3" d="M458.29,147.23a28.57,28.57,0,0,0-7.41-7.34,90.43,90.43,0,0,0-10.59-6.31q-2.6-1.37-5.25-2.71l-6.32-3.17L362.54,94.61l-6.3-3.16c-1.79-.89-3.59-1.76-5.41-2.63a125.67,125.67,0,0,0-12.63-5.29,85.33,85.33,0,0,0-14.68-3.71,103.34,103.34,0,0,0-32.46,0,86.12,86.12,0,0,0-14.67,3.7,127.28,127.28,0,0,0-12.64,5.3c-1.82.87-3.62,1.74-5.42,2.63L252,94.61,205.15,118l-19.39,9.69-6.32,3.17q-2.66,1.35-5.25,2.71c-.95.5-1.88,1-2.81,1.51a75.16,75.16,0,0,0-7.79,4.81,31.65,31.65,0,0,0-6,5.38,21.52,21.52,0,0,0-1.44,2,15.68,15.68,0,0,0-2.42,6.06,14.18,14.18,0,0,0-.16,2.06v17.32a14.76,14.76,0,0,0,2.57,8.11,28.08,28.08,0,0,0,7.4,7.34,92.9,92.9,0,0,0,10.6,6.32q2.6,1.37,5.25,2.7c2.09,1.07,4.21,2.12,6.32,3.18l28.82,14.41,37.41,18.63,6.34,3.16c1.8.88,3.6,1.76,5.42,2.63a128,128,0,0,0,12.63,5.29,86.47,86.47,0,0,0,14.68,3.7,102.74,102.74,0,0,0,32.46,0,86.12,86.12,0,0,0,14.67-3.7,124.88,124.88,0,0,0,12.64-5.29q2.73-1.3,5.41-2.63l6.35-3.16,66.18-33.09c2.11-1.06,4.23-2.11,6.31-3.18,1.78-.89,3.53-1.79,5.27-2.7a92.64,92.64,0,0,0,10.58-6.32,28.23,28.23,0,0,0,7.41-7.33q.38-.58.69-1.17c.07-.12.13-.24.19-.36.15-.29.29-.57.41-.86.06-.12.12-.25.17-.38.14-.33.26-.67.38-1l.07-.19c.12-.4.23-.8.32-1.2v-.32c.07-.33.12-.66.16-1v-.37c0-.42.07-.85.07-1.27V155.35A14.84,14.84,0,0,0,458.29,147.23Zm1.29,13.85h0v0Zm1.21-4.46v0Z"/><path d="M460.79,161h0v.36a4.85,4.85,0,0,1-.16,1v.31c-.09.41-.2.81-.32,1.21l-.06.16h0c-.12.34-.24.67-.38,1l-.12.27v.11h0c-.12.28-.26.57-.41.85-.06.12-.12.24-.19.36q-.31.59-.69,1.17a28.26,28.26,0,0,1-7.41,7.34,90.31,90.31,0,0,1-10.58,6.31q-2.61,1.38-5.26,2.71c-2.09,1.07-4.21,2.12-6.32,3.18l-66.35,33.07-6.3,3.16c-1.8.89-3.6,1.77-5.42,2.63a122.69,122.69,0,0,1-12.64,5.3,86.12,86.12,0,0,1-14.67,3.7,103.34,103.34,0,0,1-32.46,0,86.47,86.47,0,0,1-14.68-3.7,123.46,123.46,0,0,1-12.63-5.3c-1.82-.86-3.62-1.74-5.42-2.62L252,220.42l-37.36-18.68-28.82-14.4c-2.11-1.06-4.23-2.11-6.32-3.18q-2.65-1.33-5.25-2.71a90.43,90.43,0,0,1-10.59-6.31,28.26,28.26,0,0,1-7.41-7.34,14.82,14.82,0,0,1-2.57-8.12V177a14.82,14.82,0,0,0,2.57,8.12,28.26,28.26,0,0,0,7.41,7.34,91.31,91.31,0,0,0,10.6,6.3q2.59,1.38,5.25,2.71c2.09,1.07,4.21,2.12,6.32,3.18l28.82,14.41L252,237.74l6.25,3.17c1.8.88,3.6,1.76,5.42,2.62a123.46,123.46,0,0,0,12.63,5.3,86.47,86.47,0,0,0,14.68,3.7,103.34,103.34,0,0,0,32.46,0,86.12,86.12,0,0,0,14.67-3.7,122.69,122.69,0,0,0,12.64-5.3c1.82-.86,3.62-1.74,5.42-2.63,2.12-1,4.23-2.1,6.34-3.16l66.18-33.08c2.11-1.06,4.23-2.11,6.32-3.18,1.77-.89,3.53-1.8,5.26-2.71a90.31,90.31,0,0,0,10.58-6.31,28.26,28.26,0,0,0,7.41-7.34q.38-.59.69-1.17l.19-.35c.15-.29.29-.58.41-.86s.12-.25.17-.38c.14-.34.26-.67.38-1a.62.62,0,0,1,.07-.19c.12-.4.23-.8.32-1.21v-.31c.07-.33.12-.66.16-1v-.36c0-.42.07-.85.07-1.28V159.68A3.11,3.11,0,0,1,460.79,161Z"/><path class="cls-4" d="M460.79,156.62h0V157a5.07,5.07,0,0,1-.16,1v.32c-.09.4-.2.8-.32,1.2l-.06.16h0c-.12.34-.24.68-.38,1l-.12.28v.1h0c-.12.29-.26.57-.41.86-.06.12-.12.24-.19.36q-.31.58-.69,1.17a28.23,28.23,0,0,1-7.41,7.33,92.64,92.64,0,0,1-10.58,6.32q-2.61,1.36-5.26,2.7c-2.09,1.07-4.21,2.12-6.32,3.18l-66.35,33.12-6.3,3.16c-1.8.88-3.6,1.76-5.42,2.63a124.88,124.88,0,0,1-12.64,5.29,84.29,84.29,0,0,1-14.67,3.7,102.74,102.74,0,0,1-32.46,0,84.39,84.39,0,0,1-14.68-3.7,128,128,0,0,1-12.63-5.29c-1.82-.87-3.62-1.75-5.42-2.63L252,216.09l-37.4-18.68L185.76,183c-2.11-1.06-4.23-2.11-6.32-3.18q-2.66-1.34-5.25-2.7a91.91,91.91,0,0,1-10.59-6.32,28,28,0,0,1-7.41-7.34,14.76,14.76,0,0,1-2.57-8.11v17.32a14.76,14.76,0,0,0,2.57,8.11,28,28,0,0,0,7.41,7.34,91.06,91.06,0,0,0,10.64,6.31q2.59,1.37,5.25,2.7c2.09,1.07,4.21,2.12,6.32,3.18l28.82,14.41,37.31,18.68,6.34,3.16c1.8.88,3.6,1.76,5.42,2.63a128,128,0,0,0,12.63,5.29,84.39,84.39,0,0,0,14.68,3.7,102.74,102.74,0,0,0,32.46,0,84.29,84.29,0,0,0,14.67-3.7,124.88,124.88,0,0,0,12.64-5.29c1.82-.87,3.62-1.75,5.42-2.63l6.34-3.16,66.18-33.09c2.11-1.06,4.23-2.11,6.32-3.18,1.77-.89,3.53-1.79,5.26-2.7a92.64,92.64,0,0,0,10.58-6.32,28.23,28.23,0,0,0,7.41-7.33q.38-.58.69-1.17c.07-.12.13-.24.19-.36.15-.29.29-.57.41-.86.06-.12.12-.25.17-.38.14-.33.26-.67.38-1,0-.06.05-.12.07-.19.12-.4.23-.8.32-1.2v-.32c.07-.33.12-.66.16-1v-.37c0-.42.07-.85.07-1.27V155.35A3.62,3.62,0,0,1,460.79,156.62Z"/><path class="cls-1" d="M289.73,123.91c30.41,0,59.07,6.57,72.77,18,.41.34.78.68,1.16,1,26.13,1.35,38.89,10.37,35.69,10.37a56.55,56.55,0,0,0-8.62-.73c-13.13,0-19.65,5.91-22.07,9.73-.21.4-.43.8-.67,1.19-5.93,9.68-22.17,18.3-46.24,23.1a199.91,199.91,0,0,1-38.59,3.67,203.65,203.65,0,0,1-23.16-1.3,192.53,192.53,0,0,0,19.74-2.5c26.13-4.73,43.39-14,48.29-24.15-11.18.73-22.5,1-33.63,1-20.55,0-40.42-1-57.37-2-4.84-.2-9.58-.56-14.1-1.12,26.42-.59,64.06-3.56,76.27-5.27-34.13-.47-70.35-4-69-4h1.67c51.62,0,87.9-4.29,89.81-4.51,1.41-.21,2.48-.35,3.37-.44a27,27,0,0,0-2.62-2.62c-11.08-9.72-33.22-16.09-58.25-18A207.78,207.78,0,0,1,289.73,123.91Z"/></svg>