<!--
  This source file is part of the Swift.org open source project

  Copyright (c) 2021 Apple Inc. and the Swift project authors
  Licensed under Apache License v2.0 with Runtime Library Exception

  See https://swift.org/LICENSE.txt for license information
  See https://swift.org/CONTRIBUTORS.txt for Swift project authors
-->

<svg version="1.1" id="Layer_1" xmlns="http://www.w3.org/2000/svg" xmlns:xlink="http://www.w3.org/1999/xlink" x="0px"
	y="0px" viewBox="0 0 614.5 328" style="enable-background:new 0 0 614.5 328;" xml:space="preserve">
	<style type="text/css">
		.st0 {
			fill: #C1C1C3;
		}

		.st1 {
			fill: #79797C;
		}

		.st2 {
			fill: #1A1A1C;
		}

		.st3 {
			fill: #0E0E0F;
		}
	</style>
	<path class="st0" d="M609.3,137.4c-3.5-5.3-8.4-10.1-14.8-14.7c-6.8-4.7-13.8-8.9-21.2-12.6c-3.5-1.8-7-3.6-10.5-5.4
	c-4.2-2.1-8.4-4.2-12.6-6.4L417.8,32.1c-4.2-2.1-8.5-4.2-12.7-6.3c-3.6-1.8-7.2-3.5-10.8-5.3c-8.2-4-16.7-7.5-25.3-10.5
	c-9.6-3.3-19.4-5.8-29.4-7.4c-21.5-3.4-43.4-3.4-64.9,0c-10,1.6-19.8,4.1-29.3,7.4c-8.6,3.1-17,6.6-25.3,10.6
	c-3.7,1.7-7.2,3.5-10.8,5.3c-4.2,2.1-8.5,4.2-12.7,6.3L103.1,79L64.2,98.3c-4.2,2.1-8.4,4.2-12.6,6.3c-3.5,1.8-7.1,3.6-10.5,5.4
	c-1.9,1-3.8,2-5.6,3c-5.4,2.9-10.6,6.1-15.6,9.6c-4.4,3.1-8.4,6.7-11.9,10.8c-1,1.2-2,2.5-2.9,3.9c-2.4,3.6-4.1,7.8-4.8,12.1
	c-0.2,1.4-0.3,2.7-0.3,4.1v20.8c0.1,5.8,1.9,11.4,5.1,16.2c3.5,5.3,8.4,10.1,14.8,14.7c6.8,4.7,13.8,8.9,21.2,12.6
	c3.5,1.8,7,3.6,10.5,5.4c4.2,2.1,8.4,4.2,12.6,6.3l57.6,28.8l74.7,37.4c4.2,2.1,8.5,4.2,12.7,6.3c3.6,1.8,7.2,3.5,10.8,5.3
	c8.2,4,16.7,7.5,25.3,10.6c9.6,3.3,19.4,5.8,29.4,7.4c21.5,3.4,43.4,3.4,64.9,0c10-1.6,19.8-4.1,29.3-7.4c8.6-3.1,17-6.6,25.3-10.6
	c3.6-1.7,7.2-3.5,10.8-5.3c4.2-2.1,8.5-4.2,12.7-6.3l132.4-66.1c4.2-2.1,8.5-4.2,12.6-6.3c3.5-1.8,7-3.6,10.5-5.4
	c7.3-3.7,14.4-8,21.2-12.6c6.4-4.6,11.3-9.3,14.8-14.7c0.4-0.6,0.7-1.2,1.1-1.8c0.1-0.2,0.2-0.3,0.2-0.4c0.3-0.6,0.6-1.2,0.9-1.8
	l0.1-0.1c0.3-0.6,0.5-1.1,0.7-1.7c0-0.1,0.1-0.3,0.2-0.4c0.2-0.6,0.4-1.2,0.6-1.8c0-0.1,0.1-0.1,0.1-0.2c0.2-0.5,0.3-1.1,0.5-1.6
	c0-0.1,0.1-0.3,0.1-0.4c0-0.1,0.1-0.2,0.1-0.3c0.1-0.5,0.2-1,0.3-1.5c0-0.1,0-0.2,0-0.2c0.1-0.5,0.1-1.1,0.2-1.6c0-0.2,0-0.3,0-0.5
	c0-0.6,0.1-1.2,0.1-1.8v-20.8C614.4,147.8,612.6,142.2,609.3,137.4z M613.2,161.9L613.2,161.9" />
	<path class="st1"
		d="M614.4,155.5c0,0.2,0,0.3,0,0.5c0,0.5-0.1,1.1-0.2,1.6c0,0.1,0,0.2,0,0.2c-0.1,0.5-0.2,1-0.3,1.5
	c0,0.1,0,0.2-0.1,0.3s-0.1,0.3-0.1,0.4c-0.1,0.5-0.3,1-0.4,1.5c0,0,0,0.1,0,0.2c0,0.1,0,0.2-0.1,0.2l0,0c-0.1,0.3-0.2,0.6-0.3,0.8
	s-0.2,0.6-0.3,0.9c-0.1,0.1-0.1,0.3-0.2,0.4l0,0c-0.2,0.6-0.5,1.1-0.7,1.7l0,0l-0.1,0.1l0,0c-0.3,0.6-0.6,1.2-0.9,1.8l0,0l-0.2,0.4
	c-0.3,0.6-0.7,1.2-1.1,1.8c-3.5,5.3-8.4,10.1-14.8,14.7c-6.8,4.7-13.8,8.9-21.2,12.6c-3.5,1.8-7,3.6-10.5,5.4
	c-4.2,2.1-8.4,4.2-12.6,6.3l-132.5,66.2c-4.2,2.1-8.5,4.2-12.7,6.3c-3.6,1.8-7.2,3.5-10.8,5.3c-8.2,4-16.7,7.5-25.3,10.6
	c-9.5,3.3-19.4,5.8-29.3,7.4c-21.5,3.4-43.4,3.4-64.9,0c-10-1.6-19.8-4.1-29.4-7.4c-8.6-3.1-17-6.6-25.3-10.6
	c-3.6-1.7-7.2-3.5-10.8-5.2c-4.2-2.1-8.5-4.2-12.7-6.3l-74.7-37.4l-57.7-28.8c-4.2-2.1-8.4-4.2-12.6-6.3c-3.5-1.8-7.1-3.6-10.5-5.4
	c-7.3-3.7-14.4-7.9-21.2-12.6c-6.4-4.6-11.3-9.4-14.8-14.7C1.8,165.1,0,159.4,0,153.6v20.8c0.1,5.8,1.9,11.4,5.1,16.2
	c3.5,5.3,8.4,10.1,14.8,14.7c6.8,4.7,13.8,8.9,21.2,12.6c3.5,1.8,7,3.6,10.5,5.4c4.2,2.1,8.4,4.2,12.6,6.3l57.6,28.8l74.7,37.4
	c4.2,2.1,8.5,4.2,12.7,6.3c3.6,1.8,7.2,3.5,10.8,5.3c8.2,4,16.7,7.5,25.3,10.5c9.6,3.3,19.4,5.8,29.4,7.4c21.5,3.4,43.4,3.4,64.9,0
	c10-1.6,19.8-4.1,29.3-7.4c8.6-3.1,17-6.6,25.3-10.6c3.6-1.7,7.2-3.5,10.8-5.3c4.2-2.1,8.5-4.2,12.7-6.3l132.4-66.1
	c4.2-2.1,8.5-4.2,12.6-6.3c3.5-1.8,7.1-3.6,10.5-5.4c7.3-3.7,14.4-8,21.2-12.6c6.4-4.6,11.3-9.3,14.8-14.7c0.4-0.6,0.7-1.2,1.1-1.8
	l0.2-0.4c0.3-0.6,0.6-1.2,0.9-1.8l0.1-0.1c0.3-0.6,0.5-1.1,0.7-1.7c0-0.1,0.1-0.3,0.2-0.4c0.2-0.6,0.4-1.2,0.6-1.8
	c0-0.1,0.1-0.1,0.1-0.2c0.2-0.5,0.3-1.1,0.5-1.6c0-0.1,0.1-0.3,0.1-0.4c0-0.1,0.1-0.2,0.1-0.3c0.1-0.5,0.2-1,0.3-1.5
	c0-0.1,0-0.2,0-0.2c0.1-0.5,0.1-1.1,0.2-1.6c0-0.2,0-0.3,0-0.5c0-0.6,0.1-1.2,0.1-1.8v-20.8C614.5,154.2,614.5,154.8,614.4,155.5z" />
	<path class="st2" d="M458.3,147.2c-2-2.9-4.5-5.4-7.4-7.3c-3.4-2.3-6.9-4.4-10.6-6.3c-1.7-0.9-3.5-1.8-5.2-2.7l-6.3-3.2l-66.2-33.1
	l-6.3-3.2c-1.8-0.9-3.6-1.8-5.4-2.6c-4.1-2-8.3-3.8-12.6-5.3c-4.8-1.7-9.7-2.9-14.7-3.7c-10.8-1.7-21.7-1.7-32.5,0
	c-5,0.8-9.9,2-14.7,3.7c-4.3,1.5-8.5,3.3-12.6,5.3c-1.8,0.9-3.6,1.7-5.4,2.6l-6.3,3.2L205.2,118l-19.4,9.7l-6.3,3.2
	c-1.8,0.9-3.5,1.8-5.2,2.7c-1,0.5-1.9,1-2.8,1.5c-2.7,1.4-5.3,3-7.8,4.8c-2.2,1.5-4.2,3.3-6,5.4c-0.5,0.6-1,1.3-1.4,2
	c-1.2,1.8-2,3.9-2.4,6.1c-0.1,0.7-0.2,1.4-0.2,2.1v17.3c0,2.9,0.9,5.7,2.6,8.1c2,2.9,4.5,5.4,7.4,7.3c3.4,2.3,6.9,4.5,10.6,6.3
	c1.7,0.9,3.5,1.8,5.2,2.7c2.1,1.1,4.2,2.1,6.3,3.2l28.8,14.4l37.4,18.6l6.3,3.2c1.8,0.9,3.6,1.8,5.4,2.6c4.1,2,8.3,3.8,12.6,5.3
	c4.8,1.7,9.7,2.9,14.7,3.7c10.8,1.7,21.7,1.7,32.5,0c5-0.8,9.9-2,14.7-3.7c4.3-1.5,8.5-3.3,12.6-5.3c1.8-0.9,3.6-1.8,5.4-2.6
	l6.3-3.2l66.2-33.1c2.1-1.1,4.2-2.1,6.3-3.2c1.8-0.9,3.5-1.8,5.3-2.7c3.7-1.9,7.2-4,10.6-6.3c2.9-2,5.4-4.4,7.4-7.3
	c0.3-0.4,0.5-0.8,0.7-1.2c0.1-0.1,0.1-0.2,0.2-0.4c0.2-0.3,0.3-0.6,0.4-0.9c0.1-0.1,0.1-0.2,0.2-0.4c0.1-0.3,0.3-0.7,0.4-1l0.1-0.2
	c0.1-0.4,0.2-0.8,0.3-1.2v-0.1v-0.2c0.1-0.3,0.1-0.7,0.2-1c0-0.1,0-0.2,0-0.4c0-0.4,0.1-0.9,0.1-1.3v-17.3
	C460.7,152.5,459.9,149.6,458.3,147.2z M459.6,161.1L459.6,161.1V161V161.1z M460.8,156.6v0.2V156.6z" />
	<path d="M460.8,161L460.8,161v0.2c0,0,0,0.1,0,0.1c0,0.3-0.1,0.7-0.2,1v0.1v0.2c-0.1,0.4-0.2,0.8-0.3,1.2l-0.1,0.2l0,0
	c-0.1,0.3-0.2,0.7-0.4,1l-0.1,0.3v0.1l0,0c-0.1,0.3-0.3,0.6-0.4,0.9c-0.1,0.1-0.1,0.2-0.2,0.4c-0.2,0.4-0.4,0.8-0.7,1.2
	c-2,2.9-4.5,5.4-7.4,7.3c-3.4,2.3-6.9,4.4-10.6,6.3c-1.7,0.9-3.5,1.8-5.3,2.7c-2.1,1.1-4.2,2.1-6.3,3.2l-66.4,33.1l-6.3,3.2
	c-1.8,0.9-3.6,1.8-5.4,2.6c-4.1,2-8.3,3.8-12.6,5.3c-4.8,1.7-9.7,2.9-14.7,3.7c-10.8,1.7-21.7,1.7-32.5,0c-5-0.8-9.9-2-14.7-3.7
	c-4.3-1.5-8.5-3.3-12.6-5.3c-1.8-0.9-3.6-1.7-5.4-2.6l-6.3-3.2l-37.4-18.7l-28.8-14.4c-2.1-1.1-4.2-2.1-6.3-3.2
	c-1.8-0.9-3.5-1.8-5.2-2.7c-3.7-1.9-7.2-4-10.6-6.3c-2.9-2-5.4-4.5-7.4-7.3c-1.6-2.4-2.5-5.2-2.6-8.1V177c0,2.9,0.9,5.7,2.6,8.1
	c2,2.9,4.5,5.4,7.4,7.3c3.4,2.3,6.9,4.4,10.6,6.3c1.7,0.9,3.5,1.8,5.2,2.7c2.1,1.1,4.2,2.1,6.3,3.2l28.8,14.4l37.4,18.7l6.2,3.2
	c1.8,0.9,3.6,1.8,5.4,2.6c4.1,2,8.3,3.8,12.6,5.3c4.8,1.7,9.7,2.9,14.7,3.7c10.8,1.7,21.7,1.7,32.5,0c5-0.8,9.9-2,14.7-3.7
	c4.3-1.5,8.5-3.3,12.6-5.3c1.8-0.9,3.6-1.7,5.4-2.6c2.1-1,4.2-2.1,6.3-3.2l66.2-33.1c2.1-1.1,4.2-2.1,6.3-3.2
	c1.8-0.9,3.5-1.8,5.3-2.7c3.7-1.9,7.2-4,10.6-6.3c2.9-2,5.4-4.5,7.4-7.3c0.3-0.4,0.5-0.8,0.7-1.2l0.2-0.3c0.2-0.3,0.3-0.6,0.4-0.9
	s0.1-0.2,0.2-0.4c0.1-0.3,0.3-0.7,0.4-1c0-0.1,0-0.1,0.1-0.2c0.1-0.4,0.2-0.8,0.3-1.2v-0.1v-0.2c0.1-0.3,0.1-0.7,0.2-1
	c0-0.1,0-0.2,0-0.4c0-0.4,0.1-0.8,0.1-1.3v-17.3C460.9,160.1,460.8,160.5,460.8,161z" />
	<path class="st3" d="M460.8,156.6L460.8,156.6v0.2c0,0,0,0.1,0,0.1c0,0.3-0.1,0.7-0.2,1v0.1v0.2c-0.1,0.4-0.2,0.8-0.3,1.2l-0.1,0.2
	l0,0c-0.1,0.3-0.2,0.7-0.4,1l-0.1,0.3v0.1l0,0c-0.1,0.3-0.3,0.6-0.4,0.9c-0.1,0.1-0.1,0.2-0.2,0.4c-0.2,0.4-0.4,0.8-0.7,1.2
	c-2,2.9-4.5,5.4-7.4,7.3c-3.4,2.3-6.9,4.5-10.6,6.3c-1.7,0.9-3.5,1.8-5.3,2.7c-2.1,1.1-4.2,2.1-6.3,3.2l-66.4,33.1l-6.3,3.2
	c-1.8,0.9-3.6,1.8-5.4,2.6c-4.1,2-8.3,3.8-12.6,5.3c-4.8,1.7-9.7,2.9-14.7,3.7c-10.8,1.7-21.7,1.7-32.5,0c-5-0.8-9.9-2-14.7-3.7
	c-4.3-1.5-8.5-3.3-12.6-5.3c-1.8-0.9-3.6-1.8-5.4-2.6l-6.3-3.2l-37.4-18.7L185.8,183c-2.1-1.1-4.2-2.1-6.3-3.2
	c-1.8-0.9-3.5-1.8-5.2-2.7c-3.7-1.9-7.2-4-10.6-6.3c-2.9-2-5.4-4.5-7.4-7.3c-1.6-2.4-2.5-5.2-2.6-8.1v17.3c0,2.9,0.9,5.7,2.6,8.1
	c2,2.9,4.5,5.4,7.4,7.3c3.4,2.3,7,4.4,10.6,6.3c1.7,0.9,3.5,1.8,5.2,2.7c2.1,1.1,4.2,2.1,6.3,3.2l28.8,14.4l37.3,18.7l6.3,3.2
	c1.8,0.9,3.6,1.8,5.4,2.6c4.1,2,8.3,3.8,12.6,5.3c4.8,1.7,9.7,2.9,14.7,3.7c10.8,1.7,21.7,1.7,32.5,0c5-0.8,9.9-2,14.7-3.7
	c4.3-1.5,8.5-3.3,12.6-5.3c1.8-0.9,3.6-1.8,5.4-2.6l6.3-3.2l66.2-33.1c2.1-1.1,4.2-2.1,6.3-3.2c1.8-0.9,3.5-1.8,5.3-2.7
	c3.7-1.9,7.2-4,10.6-6.3c2.9-2,5.4-4.4,7.4-7.3c0.3-0.4,0.5-0.8,0.7-1.2c0.1-0.1,0.1-0.2,0.2-0.4c0.2-0.3,0.3-0.6,0.4-0.9
	c0.1-0.1,0.1-0.2,0.2-0.4c0.1-0.3,0.3-0.7,0.4-1c0-0.1,0-0.1,0.1-0.2c0.1-0.4,0.2-0.8,0.3-1.2v-0.1v-0.2c0.1-0.3,0.1-0.7,0.2-1
	c0-0.1,0-0.2,0-0.4c0-0.4,0.1-0.9,0.1-1.3v-17.3C460.9,155.8,460.8,156.2,460.8,156.6z" />
	<path class="st0" d="M289.7,123.9c30.4,0,59.1,6.6,72.8,18c0.4,0.3,0.8,0.7,1.2,1c26.1,1.4,38.9,10.4,35.7,10.4
	c-2.9-0.5-5.7-0.7-8.6-0.7c-13.1,0-19.7,5.9-22.1,9.7c-0.2,0.4-0.4,0.8-0.7,1.2c-5.9,9.7-22.2,18.3-46.2,23.1
	c-12.7,2.5-25.6,3.7-38.6,3.7c-7.7,0-15.5-0.4-23.2-1.3c6.6-0.5,13.2-1.3,19.7-2.5c26.1-4.7,43.4-14,48.3-24.1
	c-11.2,0.7-22.5,1-33.6,1c-20.5,0-40.4-1-57.4-2c-4.8-0.2-9.6-0.6-14.1-1.1c26.4-0.6,64.1-3.6,76.3-5.3c-34.1-0.5-70.3-4-69-4h1.7
	c51.6,0,87.9-4.3,89.8-4.5c1.4-0.2,2.5-0.4,3.4-0.4c-0.8-0.9-1.7-1.8-2.6-2.6c-11.1-9.7-33.2-16.1-58.2-18
	C272.7,124.4,281.2,123.9,289.7,123.9z" />
	<polygon class="st0" points="25.8,225.4 51.9,238.4 46.3,241.2 36.2,236.2 5.9,251.3 0,248.4 30.3,233.2 20.1,228.2 " />
	<path class="st0"
		d="M53.8,249c3.8,1.9,5.7,4.1,5.7,6.7s-1.9,4.9-5.6,6.8c-8.6,3.8-18.4,3.8-27,0c-3.7-1.9-5.7-4.1-5.7-6.8
	s1.9-4.9,5.6-6.8C35.4,245.2,45.2,245.2,53.8,249L53.8,249z M48.3,259.8c2.3-1.2,3.5-2.5,3.5-4s-1.1-2.9-3.4-4
	c-2.5-1.2-5.2-1.8-8-1.7c-2.8-0.1-5.6,0.5-8.1,1.7c-2.3,1.2-3.5,2.5-3.5,4.1s1.1,2.9,3.4,4C37.3,262.1,43.2,262.1,48.3,259.8" />
	<path class="st0" d="M134.4,284.4l7.2,2l-7.2,3.6l6.4,3.2l-5.3,2.7l-6.4-3.2l-12.3,6.2c-3.3,1.6-1.1,2.7,3.3,4.7l-5,2.5
	c-9.5-3.7-10.6-6.6-3.9-10l12.3-6.2l-4.7-2.4l5.3-2.7l4.7,2.4L134.4,284.4z" />
	<path class="st0" d="M103.1,276.4c0.4,0,0.8,0,1.2,0c3.1,0.1,6.1,0.9,8.9,2.3c4.3,2.1,5.7,4.8,4.2,7.4l-7.3-1
	c1.1-1.4,0.4-2.7-1.9-3.9c-1.3-0.6-2.7-1-4.1-1c-0.8,0-1.6,0.2-2.4,0.5c-1.7,0.8-0.4,2.4,1.5,4.1c3.1,2.4,6.6,5.8,1,8.5
	c-2.2,1-4.6,1.6-7,1.5c-0.5,0-1.1,0-1.7-0.1c-3.2-0.2-6.3-1.1-9.2-2.5c-5.1-2.5-6.6-5.5-4.5-8.2l7.5,1c-1.6,1.7-0.9,3.2,2,4.7
	c1.5,0.8,3.1,1.2,4.7,1.3c0.9,0,1.7-0.2,2.5-0.6c1.6-0.8,0.5-2.4-1.6-4.1c-2.9-2.4-6.5-5.8-1-8.4
	C98.3,276.9,100.7,276.3,103.1,276.4z" />
	<path class="st0" d="M92,268.7l5.5,2.8l-25.6,12.8l-5.5-2.8l3.7-1.8c-0.9,0.1-1.7,0.1-2.6,0.1c-3.7,0.1-7.4-0.8-10.8-2.4
	c-3.5-1.8-5.2-3.9-5.1-6.5s2.1-4.8,5.8-6.7c4.2-2,8.7-3,13.3-2.9h0.5c4.3-0.1,8.6,0.7,12.5,2.6c3.9,2,5.4,4.2,4.7,6.6L92,268.7z
	 M79.2,275.2c2.4-1.2,3.5-2.5,3.5-4.1s-1.1-2.9-3.4-4.1c-2.5-1.2-5.2-1.8-8-1.7h-0.2c-2.8-0.1-5.6,0.5-8.2,1.8
	c-2.4,1.2-3.5,2.5-3.6,4.1s1.2,2.9,3.5,4c2.5,1.2,5.3,1.8,8.1,1.8C73.9,277,76.7,276.4,79.2,275.2" />
	<g>
		<path class="st0" d="M157,291l2.7,1.4l-23.9,11.9c-6,3-6.2,6.9,0.5,10.2c3.3,1.6,6.9,2.5,10.6,2.5c3.4,0,6.7-0.7,9.8-2.2l23.9-12
		l2.7,1.4l-23.9,12c-3.9,1.9-8.1,2.8-12.4,2.7h-0.4c-4.5,0-9-1-13-3c-4-2-6-4.1-6.1-6.5s1.7-4.5,5.5-6.4L157,291z" />
		<polygon class="st0" points="191.8,308.4 194.5,309.7 158.6,327.7 155.9,326.3 	" />
	</g>
</svg>