<!--
  This source file is part of the Swift.org open source project

  Copyright (c) 2021 Apple Inc. and the Swift project authors
  Licensed under Apache License v2.0 with Runtime Library Exception

  See https://swift.org/LICENSE.txt for license information
  See https://swift.org/CONTRIBUTORS.txt for Swift project authors
-->

<svg version="1.1" id="ToastUI" xmlns="http://www.w3.org/2000/svg" xmlns:xlink="http://www.w3.org/1999/xlink" x="0px"
	y="0px" viewBox="0 0 1584.8540039 307.5285034" enable-background="new 0 0 1584.8540039 307.5285034"
	xml:space="preserve">
	<path display="none" fill="#1A1A1C" d="M212.7150269,520.5154419c6.2819824,4.5180054,13.6349487,8.6535034,21.177002,12.6270142
	c3.4559937,1.8314819,6.9749756,3.6269531,10.5029907,5.4179688c4.1939697,2.1240234,8.4239502,4.2344971,12.6449585,6.3450317
	l57.6360474,28.8179932l74.7269897,37.3634644c4.2299805,2.1105347,8.4420166,4.2210083,12.6989746,6.3225098
	c3.572998,1.7684937,7.1730347,3.5234985,10.8179932,5.2515259c7.9559937,3.7709961,16.2360229,7.4474487,25.2630005,10.588501
	c9.1799927,3.1904907,18.7020264,5.6699829,29.3580322,7.4069824c10.4760132,1.7055054,21.4469604,2.569519,32.4630127,2.569519
	c11.006958,0,21.9779663-0.8685303,32.4629517-2.569519c10.6560059-1.7369995,20.1690063-4.2120361,29.3400269-7.4025269
	c9.0359497-3.1409912,17.315979-6.8219604,25.2719727-10.5929565c3.6450195-1.7280273,7.2449951-3.4875488,10.8270264-5.2560425
	c4.2479858-2.0924683,8.4689941-4.2074585,12.6900024-6.3179932l132.3629761-66.1814575
	c4.2210083-2.1105347,8.4509888-4.2210083,12.6359863-6.3495483c3.5369873-1.786499,7.0560303-3.5864868,10.5120239-5.4089966
	c7.5509644-3.9824829,14.9039917-8.117981,21.1859741-12.6405029c6.3809814-4.5809937,11.3309937-9.34198,14.8049927-14.6699829
	c0.3780518-0.5820923,0.7277832-1.1682129,1.0646362-1.7559814c0.0811768-0.1417236,0.1616821-0.2834473,0.2404785-0.4254761
	c0.324707-0.5853271,0.635437-1.1724243,0.9192505-1.7626953c0.0209351-0.043396,0.0387573-0.0872192,0.0594482-0.1306152
	c0.2644653-0.5560913,0.5063477-1.1146851,0.7342529-1.6746216c0.0579834-0.142334,0.1160889-0.284729,0.1716919-0.4273071
	c0.1218262-0.312439,0.223877-0.626709,0.3356323-0.9401245c0.098938-0.2808838,0.2108154-0.5605469,0.3006592-0.8422241
	c0.0236206-0.074646,0.0432739-0.1497803,0.0664673-0.2245483c0.0172119-0.055603,0.0294189-0.1115723,0.0462646-0.1671753
	c0.1471558-0.4849854,0.2833252-0.9708252,0.4032593-1.4577637c0.0345459-0.1401978,0.0701294-0.2802124,0.102417-0.4205322
	c0.026001-0.1130371,0.0421753-0.2266846,0.0669556-0.3397827c0.1069946-0.4933472,0.2130737-0.9867554,0.2920532-1.4816284
	c0.0133667-0.083374,0.0214233-0.1669922,0.0339355-0.2503662c0.0802002-0.5344238,0.1421509-1.0697021,0.1896362-1.6054688
	c0.0143433-0.1622925,0.0281982-0.3245239,0.0396118-0.4868774c0.0429077-0.6122437,0.0723877-1.2249756,0.0723877-1.8383179
	c0-5.503479-1.7280273-10.9890137-5.1390381-16.2269897c-3.473999-5.3280029-8.4329834-10.0935059-14.8139648-14.6790161
	c-6.2730103-4.5180054-13.6350098-8.6535034-21.177002-12.6314697c-3.4559937-1.8270264-6.9660034-3.6224976-10.5029907-5.4089966
	c-4.2030029-2.12854-8.4240112-4.2344971-12.6450195-6.3495483l-132.3629761-66.1814575
	c-4.2210083-2.1105347-8.4420166-4.2210083-12.6900024-6.3225098c-3.5820312-1.7640381-7.1730347-3.5234985-10.8270264-5.2560425
	c-7.9559937-3.7664795-16.2269897-7.4429932-25.2630005-10.588501c-9.1799927-3.1904907-18.6929932-5.6654663-29.3579712-7.3979492
	c-10.4760132-1.7055054-21.4379883-2.5740356-32.4539795-2.5740356c-11.0160522,0-21.9869995,0.8685303-32.4630127,2.5740356
	c-10.6560059,1.7324829-20.1690063,4.2074585-29.3400269,7.3979492c-9.0449829,3.1410522-17.315979,6.8220215-25.2719727,10.588501
	c-3.6630249,1.7325439-7.2540283,3.4920044-10.8359985,5.2560425c-4.2390137,2.1015015-8.4689941,4.2119751-12.6900024,6.3225098
	l-93.5910034,46.7954712l-38.7720337,19.3859863c-4.2210083,2.1150513-8.4419556,4.2210083-12.6359863,6.3450317
	c-3.5369873,1.7910156-7.0559692,3.5910034-10.5119629,5.4135132c-1.8900146,0.9945068-3.7620239,2.0025024-5.6070557,3.0194702
	c-5.5439453,3.0510254-10.8719482,6.2280273-15.5789795,9.6210327c-4.7789917,3.4379883-8.7659912,6.9749756-11.9160156,10.7729492
	c-1.0529785,1.269043-2.0159912,2.5650024-2.8800049,3.8970337c-2.5559692,3.9284668-4.1759644,7.996521-4.8239746,12.1049805
	c-0.2160034,1.3724976-0.3239746,2.7449951-0.3239746,4.1220093c0,5.5079956,1.7369995,10.9935303,5.1479492,16.2315063
	C201.375,511.1689453,206.3250122,515.925415,212.7150269,520.5154419z" />
	<path display="none" fill="#E3E3E7"
		d="M356.3554993,506.7905273c3.1410522,2.2589722,6.8220215,4.3289795,10.5930176,6.3179932
	c1.7280273,0.9135132,3.4830322,1.8134766,5.2470093,2.7044678c2.0969849,1.0665283,4.2119751,2.1195068,6.3270264,3.177002
	l28.8179932,14.4089966l37.3589478,18.6795044c2.1150513,1.0574951,4.2210083,2.1105347,6.3450317,3.1635132
	c1.7910156,0.882019,3.5910034,1.7595215,5.4179688,2.6234741c3.9780273,1.885498,8.118042,3.7260132,12.6270142,5.2965088
	c4.5900269,1.5930176,9.3510132,2.835022,14.6790161,3.6990356c5.2379761,0.8549805,10.7279663,1.2869873,16.2360229,1.2869873
	c5.4989624,0,10.9889526-0.4320068,16.2268982-1.2869873c5.3280029-0.8640137,10.0891113-2.1060181,14.6700439-3.6990356
	c4.5180664-1.5704956,8.657959-3.4110107,12.6359863-5.2965088c1.8270264-0.8639526,3.6270752-1.7414551,5.4179688-2.6279907
	c2.1240234-1.0484619,4.2301025-2.1015015,6.3450928-3.1589966l66.177002-33.088501
	c2.1149902-1.0574951,4.2299805-2.1104736,6.3179932-3.177002c1.7729492-0.8909912,3.5279541-1.7909546,5.2650146-2.7044678
	c3.7619629-1.9890137,7.4429932-4.059021,10.5839844-6.3179932c3.1949463-2.2950439,5.6699219-4.6710205,7.4069824-7.335022
	c0.2512207-0.3867798,0.4782715-0.7770996,0.6928711-1.1690063c0.0651855-0.1188965,0.1246338-0.2385254,0.1864014-0.3578491
	c0.1472168-0.284729,0.2854004-0.5706177,0.4133301-0.857605c0.015625-0.0349731,0.0306396-0.0698853,0.0458984-0.1048584
	c0.0404053-0.0906982,0.0812988-0.1812744,0.1191406-0.2722168c0.1395264-0.3359375,0.2658691-0.6732178,0.3790283-1.0116577
	c0.0030518-0.0092773,0.0067139-0.0185547,0.0098877-0.027832c0.0192871-0.0544434,0.0406494-0.1087646,0.0581055-0.1634521
	c0.1275635-0.3997192,0.2336426-0.8010864,0.3243408-1.2033691c0.0124512-0.055603,0.0223389-0.1113281,0.0328369-0.1669922
	c0.010498-0.0496216,0.019165-0.0992432,0.0291748-0.1488647c0.0665283-0.3308716,0.1206055-0.6624146,0.1619873-0.9944458
	c0.005249-0.0423584,0.0097656-0.0847168,0.0150146-0.1270752c0.0090332-0.0787964,0.0200195-0.1575317,0.02771-0.2363281
	c0.0412598-0.4250488,0.0692139-0.8505249,0.0692139-1.2764282c0-2.7540283-0.8640137-5.4945068-2.5649414-8.1135254
	c-1.7370605-2.6640015-4.2210693-5.0444946-7.4069824-7.3394775c-3.1409912-2.2590332-6.8220215-4.3245239-10.5930176-6.3135376
	c-1.7280273-0.9134521-3.4830322-1.8134766-5.2470703-2.7089844c-2.105957-1.0620117-4.2119141-2.1149902-6.3269043-3.1724854
	l-66.177002-33.088501c-2.1149902-1.0574951-4.2210693-2.1149902-6.3450928-3.1635132
	c-1.7908936-0.881958-3.5909424-1.7594604-5.4179688-2.6279907c-3.9780273-1.8809814-8.1090088-3.7214966-12.6269531-5.2919922
	c-4.5899658-1.5974731-9.3510742-2.835022-14.6790771-3.7034912c-5.2379456-0.8505249-10.7279358-1.2825317-16.2268982-1.2825317
	c-5.5080566,0-10.9980469,0.4320068-16.2360229,1.2825317c-5.3280029,0.8684692-10.0889893,2.1060181-14.6699829,3.6989746
	c-4.5180054,1.5750122-8.65802,3.4110107-12.6360474,5.2965088c-1.8269653,0.8685303-3.6269531,1.7460327-5.4179688,2.6279907
	c-2.1149902,1.0485229-4.2299805,2.1060181-6.3450317,3.1635132l-46.7909546,23.3955078l-19.3859863,9.6929932
	c-2.1150513,1.0574951-4.2210083,2.1104736-6.3180542,3.1724854c-1.7729492,0.8955078-3.5279541,1.7955322-5.2559814,2.7089844
	c-0.9450073,0.4950562-1.8809814,0.9990234-2.8079834,1.5075073c-2.7720337,1.5255127-5.4360352,3.1140137-7.7850342,4.8105469
	c-2.3939819,1.7189941-4.3829956,3.4874878-5.9579468,5.3864746c-0.5310059,0.6345215-1.0080566,1.2824707-1.4400024,1.9484863
	c-1.2780151,1.9664917-2.0880127,3.9960327-2.4120483,6.0524902c-0.1079712,0.6885376-0.1619873,1.3724976-0.1619873,2.0610352
	c0,2.7539673,0.8640137,5.4989624,2.5650024,8.1134644C350.6855164,502.1195068,353.160553,504.4954834,356.3554993,506.7905273z" />
	<path fill="#C1C1C3" d="M571.2672729,128.8059235c-3.256958-4.9951324-7.9061279-9.4629059-13.8884277-13.7619247
	c-5.8811035-4.2357407-12.7831421-8.1128693-19.8539429-11.8423004c-3.2401123-1.712883-6.5308228-3.3961792-9.8468018-5.0710678
	c-3.9404297-1.9955521-7.8977051-3.9699402-11.8550415-5.9528503L391.7296753,30.1311054
	c-3.9573059-1.9786758-7.9146118-3.9572945-11.8971863-5.9275017c-3.3582458-1.6538277-6.724884-3.3033638-10.1506042-4.9276638
	c-7.4589233-3.5311632-15.2131653-6.9779816-23.6846619-9.9269695c-8.6064453-2.9911599-17.525116-5.3115077-27.5237732-6.9357514
	C308.651947,0.8142676,298.3748169,0,288.0470886,0c-10.3278198,0-20.6133423,0.8142676-30.434845,2.413219
	c-9.9902649,1.6242437-18.9089203,3.9445915-27.5069733,6.9357514c-8.4798889,2.9448109-16.2341309,6.3958063-23.6930695,9.9269695
	c-3.4341736,1.6243-6.800827,3.2738361-10.1589966,4.9276638c-3.9741821,1.9702072-7.9398956,3.9488258-11.8971863,5.9275017
	L96.6122437,74.0029602L60.2625542,92.1777802c-3.9572945,1.9829102-7.9145317,3.9572983-11.8465347,5.948616
	c-3.3160095,1.6791229-6.615139,3.3666534-9.8552132,5.0753021c-1.7719345,0.932373-3.5269852,1.877388-5.2567482,2.8308182
	c-5.1975784,2.8604126-10.1927052,5.8389282-14.6056595,9.0199509c-4.4804163,3.2231903-8.2183228,6.5391998-11.171545,10.0998917
	c-0.9871922,1.1897583-1.8900394,2.404747-2.7000728,3.6535645c-2.3962812,3.6830292-3.9150648,7.4969177-4.5225897,11.3486938
	c-0.2025083,1.2867584-0.3037339,2.5735016-0.3037339,3.8644867v19.4860535c0,5.1638794,1.6284779,10.3067017,4.8263235,15.2174225
	c3.2485447,4.9993591,7.8892975,9.4586639,13.8800879,13.7619324c5.8895054,4.235733,12.7830849,8.112854,19.8539371,11.8381195
	c3.2400742,1.7170563,6.5392036,3.4003448,9.8468018,5.0794678c3.9319458,1.9913177,7.8976517,3.9699402,11.8549461,5.9486237
	l54.0351524,27.0175476l70.0583115,35.029129c3.9657135,1.9786682,7.9145966,3.9572754,11.9055939,5.9274902
	c3.349762,1.65802,6.724884,3.3033752,10.1421204,4.9234314c7.4589386,3.5354004,15.2216492,6.9821777,23.6846619,9.9269714
	c8.6064606,2.9911499,17.5335846,5.3157349,27.5238495,6.9442139c9.8215027,1.5989685,20.1070251,2.4089966,30.434845,2.4089966
	c10.3192749,0,20.6048584-0.81427,30.4347839-2.4089966c9.9902344-1.628479,18.908905-3.9488831,27.506958-6.940033
	c8.471405-2.9447632,16.2341309-6.395752,23.6930542-9.9311523c3.4172974-1.6200562,6.7923584-3.2696533,10.1506042-4.9276733
	c3.9825745-1.961731,7.9398804-3.9445801,11.8971863-5.9232483l124.0933838-62.0466766
	c3.9573364-1.9786835,7.9230347-3.9573059,11.8465576-5.9528503c3.315979-1.6748962,6.6151733-3.3624268,9.8552856-5.0710602
	c7.0791626-3.7336731,13.9728394-7.6108093,19.8623047-11.850769c5.9823608-4.2947998,10.6231079-8.7583313,13.8800659-13.7534637
	c0.3544312-0.5457153,0.682312-1.0952301,0.9981079-1.6462708c0.0762939-0.1331635,0.1518555-0.2662506,0.2258911-0.3996887
	c0.3041992-0.5483704,0.5952148-1.0983887,0.861145-1.6513214c0.0197754-0.0411377,0.0368042-0.0826263,0.0563965-0.123764
	c0.2476807-0.5210114,0.4743042-1.0442963,0.6878662-1.5689087c0.0543823-0.1336212,0.1089478-0.2669983,0.1610718-0.4008484
	c0.2164917-0.5553284,0.418335-1.1119843,0.5964355-1.6707001c0.0223389-0.0701599,0.0406494-0.1405945,0.0623779-0.2108002
	c0.1570435-0.5065308,0.2960205-1.0144348,0.4213867-1.5232544c0.0324097-0.1315002,0.0657959-0.2628174,0.0960693-0.3944244
	c0.0230713-0.1001434,0.0513306-0.1999969,0.0731812-0.3001862c0.1018677-0.4682465,0.1883545-0.9374084,0.2633667-1.4071503
	c0.0124512-0.0782166,0.0200806-0.156723,0.0318604-0.2350159c0.0752563-0.5010223,0.1332397-1.0028687,0.1777954-1.5051575
	c0.0134888-0.1521606,0.0264893-0.3041992,0.0371094-0.4564667c0.0402832-0.5739899,0.0678711-1.1484375,0.0678711-1.723465
	V144.019104C576.0852051,138.8594666,574.4651489,133.7166443,571.2672729,128.8059235z M574.854248,151.7747345
	c-0.000061,0.0001068,0,0.0001678-0.000061,0.0002899" />
	<path fill="#79797C" d="M576.0169067,145.7420807c-0.0106812,0.1522064-0.0236816,0.304306-0.0371094,0.4564667
	c-0.0445557,0.5022888-0.1026001,1.0041199-0.1777954,1.5051575c-0.0117798,0.0781708-0.0192871,0.1565552-0.0318604,0.234726
	c-0.0740356,0.4639587-0.1734619,0.9265442-0.2738037,1.3890686c-0.0231934,0.1060333-0.0383911,0.2125702-0.0627441,0.3185425
	c-0.0302734,0.1315613-0.0636597,0.2628326-0.0960083,0.3942719c-0.1124878,0.4565125-0.2401123,0.9120026-0.3781128,1.366684
	c-0.0157471,0.052124-0.0272217,0.104599-0.043335,0.156723c-0.0217285,0.0700989-0.0401611,0.1405487-0.0623169,0.2105255
	c-0.000061,0.0001068,0,0.0001678-0.000061,0.0002899c-0.0841675,0.2639618-0.1880493,0.5262146-0.2817993,0.7893066
	c-0.1047974,0.2938385-0.2005005,0.5884705-0.3146973,0.8813934c-0.052124,0.133667-0.1065674,0.2671661-0.1609497,0.4006195
	c0,0.0000458-0.000061,0.0001678-0.000061,0.0002289c-0.213562,0.5245514-0.4401855,1.0478973-0.6879272,1.5689087
	c-0.0001221,0.0002747-0.0003052,0.0005646-0.0003662,0.0008545c-0.0194092,0.0406799-0.0361328,0.0817719-0.0557861,0.1224518
	c-0.000061,0.0001678-0.0001221,0.0002899-0.0001831,0.0004578c-0.2659302,0.5529327-0.5568848,1.102951-0.861145,1.6513062
	c-0.0001831,0.0002899-0.0003052,0.0005188-0.0004883,0.0008087c-0.0738525,0.1331482-0.149353,0.2660217-0.2254639,0.3988953
	c-0.3157959,0.5510406-0.6436768,1.1005402-0.9981079,1.6462708c-3.256958,4.9951324-7.8977051,9.4586639-13.8800049,13.7534485
	c-5.8895264,4.239975-12.7831421,8.1170959-19.8623657,11.850769c-3.2400513,1.7086487-6.5392456,3.3961792-9.8552856,5.0710602
	c-3.9235229,1.9955597-7.8892212,3.9741821-11.8464966,5.9528656l-124.0934143,62.0466766
	c-3.9573059,1.9786682-7.9146118,3.9615173-11.8971863,5.9232483c-3.3582458,1.65802-6.7333069,3.3076172-10.1506042,4.9276733
	c-7.4589233,3.5354004-15.2216492,6.9863892-23.6930542,9.9311523c-8.598053,2.9911499-17.5167236,5.311554-27.506958,6.940033
	c-9.8299255,1.5947266-20.115509,2.4089966-30.4347839,2.4089966c-10.3278198,0-20.6133423-0.8100281-30.434845-2.4089966
	c-9.9902649-1.628479-18.9173889-3.953064-27.5238495-6.9442139c-8.4630127-2.9448242-16.2257233-6.391571-23.6846619-9.9269714
	c-3.4172363-1.6200562-6.7923584-3.2654114-10.1421204-4.9234314c-3.9909973-1.9702148-7.9398804-3.948822-11.9055939-5.9274902
	l-70.0583115-35.029129l-54.0351524-27.0175476c-3.9572945-1.9786835-7.9230003-3.9573059-11.8549461-5.9486237
	c-3.3075981-1.6791229-6.6067276-3.3624115-9.8468018-5.0794678c-7.0708523-3.7252655-13.9644318-7.6023865-19.8539371-11.8381348
	c-5.9907904-4.3032532-10.6315432-8.762558-13.8800879-13.7619171C1.6284779,154.3253174,0,149.1824951,0,144.0186157v19.4860535
	c0,5.1638794,1.6284779,10.3067017,4.8263235,15.2174225c3.2485447,4.9993744,7.8892975,9.4586639,13.8800879,13.7619324
	c5.8895054,4.235733,12.7830849,8.112854,19.8539371,11.8381195c3.2400742,1.7170563,6.5392036,3.4003601,9.8468018,5.0794678
	c3.9319458,1.991333,7.8976517,3.9699402,11.8549461,5.9486237l54.0351524,27.0175476l70.0583115,35.029129
	c3.9657135,1.9786682,7.9145966,3.9573059,11.9055939,5.9274902c3.349762,1.65802,6.724884,3.3033752,10.1421204,4.9234314
	c7.4589386,3.5354004,15.2216492,6.9821777,23.6846619,9.9269714c8.6064606,2.9911499,17.5335846,5.3157349,27.5238495,6.9442139
	c9.8215027,1.5989685,20.1070251,2.4089966,30.434845,2.4089966c10.3192749,0,20.6048584-0.81427,30.4347839-2.4089966
	c9.9902344-1.628479,18.908905-3.9488831,27.506958-6.940033c8.471405-2.9447632,16.2341309-6.395752,23.6930542-9.9311523
	c3.4172974-1.6200562,6.7923584-3.2696533,10.1506042-4.9276428c3.9825745-1.9617615,7.9398804-3.9446106,11.8971863-5.9232788
	l124.0934143-62.0466766c3.9572754-1.9786835,7.9229736-3.9572906,11.8464966-5.9528503
	c3.31604-1.674881,6.6152344-3.3624115,9.8552856-5.0710602c7.0792236-3.7336731,13.9728394-7.6108093,19.8623657-11.850769
	c5.9822998-4.2947998,10.6230469-8.7583313,13.8800049-13.7534637c0.3544312-0.5457153,0.682312-1.0952301,0.9981079-1.6462708
	c0.0762939-0.1331482,0.1519165-0.2662506,0.2259521-0.3996887c0.3041992-0.5483551,0.5952148-1.0983734,0.861145-1.6513214
	c0.0197754-0.0411377,0.0367432-0.0826263,0.0563354-0.123764c0.2477417-0.5210114,0.4743042-1.0442963,0.6879272-1.5689087
	c0.0543823-0.1336212,0.1088867-0.2669983,0.1610107-0.4008484c0.2165527-0.5553284,0.418335-1.1119843,0.5964966-1.6707001
	c0.0223389-0.0701599,0.0406494-0.1405945,0.0623779-0.2108002c0.1569824-0.5065308,0.2960205-1.0144348,0.4213867-1.5232544
	c0.0323486-0.1315002,0.0657959-0.2628174,0.0960693-0.3944244c0.0230713-0.1001434,0.0513306-0.1999969,0.0731201-0.3001862
	c0.1019287-0.4682465,0.1883545-0.9374084,0.2633667-1.4071503c0.0125122-0.0782166,0.0200806-0.156723,0.0319214-0.2350006
	c0.0751953-0.5010376,0.1331787-1.0028839,0.1777954-1.5051727c0.0134888-0.1521454,0.0264893-0.304184,0.0371094-0.4564514
	c0.0402222-0.5740051,0.0678711-1.1484528,0.0678711-1.7234802v-19.4860535
	C576.0847778,144.5936432,576.0571289,145.1680908,576.0169067,145.7420807z" />
	<path fill="#1A1A1C" d="M429.6566772,138.0358429c-1.628479-2.4975739-3.9573059-4.7293396-6.9442139-6.8809357
	c-2.9447632-2.1179047-6.395813-4.0543442-9.9312134-5.9190903c-1.6199951-0.8563843-3.2653503-1.7001801-4.9191895-2.5397415
	c-1.9743958-0.9956589-3.948822-1.9828491-5.9316711-2.9742737l-62.042511-31.0212555
	c-1.9828491-0.9914246-3.9572754-1.9828491-5.9486084-2.9658661c-1.6790771-0.8268585-3.3666077-1.6495361-5.0794678-2.4637985
	c-3.7294922-1.7634659-7.6023865-3.4889908-11.8381348-4.9613724c-4.3031921-1.4976654-8.7667847-2.6578979-13.7619324-3.4721069
	c-4.9107056-0.7973862-10.0577087-1.2024078-15.2131042-1.2024078c-5.1639404,0-10.3109436,0.4050217-15.2216797,1.2024078
	c-4.9951172,0.814209-9.4586487,1.9744415-13.7534485,3.4678726c-4.235733,1.4766159-8.1170959,3.1979065-11.8465881,4.9656067
	c-1.7128143,0.8142624-3.4003448,1.63694-5.0794678,2.4637985c-1.9828491,0.983017-3.9657135,1.9744415-5.9486237,2.9658661
	l-43.8676147,21.9338455l-18.1748199,9.08741c-1.9829102,0.9914246-3.9572906,1.9786148-5.9233246,2.9742737
	c-1.6621857,0.8395615-3.3075409,1.6833572-4.9276123,2.5397415c-0.8859558,0.4641266-1.7634583,0.9366074-2.6325531,1.4133224
	c-2.5988464,1.4302063-5.096405,2.9194641-7.298645,4.5099945c-2.2444153,1.6116028-4.1091614,3.2696075-5.5857239,5.0499573
	c-0.497818,0.5948792-0.9450684,1.2023468-1.3500366,1.8267517c-1.1981659,1.8436279-1.95755,3.7463684-2.2613525,5.6743469
	c-0.1012115,0.6455231-0.1518555,1.2867432-0.1518555,1.9322662v16.2383728c0,2.5819702,0.8100281,5.1554718,2.4047394,7.6066284
	c1.628479,2.5017395,3.9488831,4.7293243,6.9442291,6.8809357c2.944809,2.1178894,6.3957977,4.0585175,9.9311981,5.9232635
	c1.6200714,0.8564453,3.2654266,1.7002258,4.9192047,2.535553c1.9659729,0.9998474,3.948822,1.9870911,5.9317322,2.9785156
	l27.0175476,13.5087738l35.0248871,17.5124817c1.9829102,0.9914246,3.9573059,1.9786224,5.9486237,2.9658051
	c1.6791229,0.8269196,3.3666534,1.6495972,5.0794678,2.4596252c3.7294922,1.7677002,7.6108551,3.4932251,11.8381348,4.9656067
	c4.3032532,1.4934387,8.7667847,2.6578369,13.7619019,3.4678802c4.9107361,0.8015594,10.0577393,1.2065735,15.2216797,1.2065735
	c5.1553955,0,10.3023987-0.405014,15.2131042-1.2065735c4.9951477-0.8100433,9.4587402-1.9744415,13.7535095-3.4678802
	c4.2357483-1.4723816,8.1170654-3.1979065,11.8465576-4.9656067c1.7128601-0.8100281,3.4003906-1.6327057,5.0794678-2.4638062
	c1.991333-0.9830017,3.9657593-1.9701996,5.9486084-2.9616241l62.042511-31.0212555
	c1.9828491-0.9914246,3.9656982-1.9786682,5.9232483-2.9785156c1.662262-0.8353271,3.3076172-1.6791077,4.9360962-2.535553
	c3.5269165-1.8647461,6.9779663-3.8053741,9.9227295-5.9232635c2.9953918-2.1516113,5.3157349-4.3791962,6.9442139-6.8767548
	c0.2355347-0.3626862,0.4484558-0.7285614,0.6496887-1.0960388c0.0610046-0.1113434,0.1165771-0.2232819,0.1744385-0.3349762
	c0.1383057-0.2672729,0.2679138-0.5355988,0.3880615-0.8049927c0.0524902-0.1175385,0.1054077-0.2349548,0.1543884-0.35289
	c0.1308594-0.3150635,0.2492676-0.6312714,0.3553467-0.9486237c0.0200195-0.059906,0.0446777-0.1193085,0.0638123-0.1792755
	c0.1195984-0.3748016,0.2190857-0.7510986,0.3040771-1.1282959c0.006958-0.0309601,0.0181885-0.0616302,0.0249329-0.0925903
	c0.0146484-0.0673523,0.0194702-0.1351013,0.03302-0.2025146c0.0623779-0.3105927,0.1131897-0.6215973,0.1520386-0.9332886
	c0.0141296-0.1134033,0.0290833-0.2266541,0.0400696-0.3402405c0.0386658-0.3986053,0.0648804-0.7976685,0.0648804-1.1970825
	v-16.2383728C432.0614319,143.0605011,431.2514038,140.4912262,429.6566772,138.0358429z M430.8687134,151.0175934
	c-0.000061,0.000061-0.000061,0.0001221-0.0001221,0.0001831c0.0145874-0.0327911,0.028656-0.0655212,0.0430298-0.0983124
	C430.8970947,150.9521332,430.8833008,150.9849243,430.8687134,151.0175934z M431.9965515,146.8394928
	c-0.0071716,0.0737457-0.0168457,0.1475067-0.0260315,0.2212067c0.0085144-0.0738678,0.0187988-0.1476898,0.0260315-0.2215576
	C431.9965515,146.8392639,431.9965515,146.8393707,431.9965515,146.8394928z" />
	<path d="M431.9970398,150.904541c0,0.0001221,0,0.0002289,0,0.000351c-0.0071716,0.0737457-0.0168457,0.1475067-0.026062,0.2212067
	c-0.0049133,0.0397186-0.0090942,0.0794373-0.0140076,0.1191406c-0.0388489,0.3112946-0.0895386,0.6221161-0.1518555,0.932312
	c-0.0093994,0.046524-0.0175781,0.0930481-0.0274048,0.1395721c-0.0097961,0.0521851-0.0190735,0.1044312-0.0307922,0.1565552
	c-0.0849915,0.3771515-0.1844177,0.7534485-0.3040161,1.1281891c-0.0163879,0.0512695-0.0364685,0.1022034-0.0545349,0.153244
	c-0.0029297,0.0086975-0.0063477,0.017395-0.0092773,0.0260925c-0.1060791,0.3172913-0.2244873,0.6334991-0.3553467,0.9484558
	c-0.0354309,0.0852509-0.073761,0.170166-0.1116333,0.2552032c-0.0145569,0.0326691-0.0283203,0.0654602-0.0429382,0.0981293
	c-0.0000305,0.000061-0.0000305,0.0001221-0.0000916,0.0001831c-0.1199951,0.2690582-0.2495117,0.5370789-0.3875732,0.8040161
	c-0.0578613,0.1118774-0.1136475,0.2240295-0.1747131,0.335495c-0.2011719,0.3674164-0.414093,0.7333527-0.6496277,1.0959778
	c-1.628479,2.4975586-3.948822,4.7250977-6.9442139,6.8767548c-2.9447632,2.1178284-6.395813,4.0585175-9.9227295,5.9232635
	c-1.628479,0.8564453-3.2738342,1.7001801-4.9360962,2.5355072c-1.95755,0.9998932-3.9403992,1.9870758-5.9232483,2.9785156
	l-62.042511,31.0212402c-1.9828491,0.9914246-3.9573059,1.9786835-5.9486084,2.9616394
	c-1.6790771,0.8311462-3.3666077,1.6538239-5.0794678,2.4638062c-3.7294922,1.7677002-7.6108093,3.4932251-11.8465576,4.9655914
	c-4.2947693,1.4934998-8.7583618,2.6578979-13.7535095,3.4679413c-4.9107056,0.8015594-10.0577087,1.2065735-15.2131042,1.2065735
	c-5.1639404,0-10.3109436-0.405014-15.2216797-1.2065735c-4.9951172-0.8100433-9.4586487-1.9744415-13.7619019-3.4679413
	c-4.2272797-1.4723663-8.1086426-3.1978912-11.8381348-4.9655914c-1.7128143-0.8099823-3.4003448-1.6326599-5.0794678-2.4595795
	c-1.991333-0.9871826-3.9657135-1.9744415-5.9486237-2.9658661l-35.0248871-17.5124664l-27.0175476-13.5087738
	c-1.9829102-0.9914398-3.9657745-1.9786224-5.9317474-2.9785156c-1.6537628-0.8353271-3.299118-1.6790619-4.9191895-2.5355072
	c-3.5354004-1.8647461-6.9863892-3.8054352-9.9311981-5.9232635c-2.9953461-2.1516571-5.3157501-4.3791962-6.9442291-6.8809967
	c-1.5947113-2.4511566-2.4047394-5.0246582-2.4047394-7.6065674v16.2383728c0,2.5819702,0.8100281,5.1554718,2.4047394,7.6066284
	c1.628479,2.5017395,3.9488831,4.7293243,6.9442291,6.8809357c2.944809,2.1178894,6.3957977,4.0585175,9.9311981,5.9232635
	c1.6200714,0.8564453,3.2654266,1.7002411,4.9191895,2.535553c1.9659729,0.9998474,3.9488373,1.9870911,5.9317474,2.9785156
	l27.0175476,13.5087738l35.0248871,17.5124817c1.9829102,0.9914246,3.9572906,1.9786224,5.9486237,2.9658051
	c1.6791229,0.8269196,3.3666534,1.6495972,5.0794678,2.4596252c3.7294922,1.7677002,7.6108551,3.4932251,11.8381348,4.9656067
	c4.3032532,1.4934387,8.7667847,2.6578369,13.7619019,3.4678802c4.9107361,0.8015594,10.0577393,1.2065735,15.2216797,1.2065735
	c5.1553955,0,10.3023987-0.405014,15.2131042-1.2065735c4.9951477-0.8100433,9.4587402-1.9744415,13.7535095-3.4678802
	c4.2357483-1.4723816,8.1170654-3.1979065,11.8465576-4.9656067c1.7128601-0.8100281,3.4003906-1.6327057,5.0794678-2.4637909
	c1.9913025-0.983017,3.9657593-1.9702148,5.9486084-2.9616394l62.042511-31.0212555
	c1.9828491-0.9914246,3.9656982-1.9786682,5.9232483-2.9785156c1.662262-0.8353119,3.3076172-1.6791077,4.9360962-2.535553
	c3.5269165-1.8647461,6.9779663-3.8053741,9.9227295-5.9232635c2.9953918-2.1516113,5.3157349-4.3791962,6.9442139-6.8767548
	c0.2355347-0.3626709,0.4484558-0.7285614,0.6496887-1.0960388c0.0610046-0.1113434,0.1165771-0.2232819,0.174408-0.3349762
	c0.1383057-0.2672729,0.2679138-0.5355988,0.388092-0.8049927c0.0524597-0.1175385,0.1054077-0.2349548,0.1543884-0.35289
	c0.1308594-0.3150635,0.2492676-0.6312714,0.3553467-0.9486237c0.0200195-0.059906,0.0446777-0.1193085,0.0638123-0.1792755
	c0.1195984-0.3748016,0.2190857-0.7510986,0.3040771-1.1282959c0.006958-0.0309601,0.0181885-0.0616302,0.0249329-0.0925903
	c0.0146484-0.0673523,0.0194702-0.1351013,0.03302-0.2025146c0.0623779-0.3105927,0.1131897-0.6215973,0.1520386-0.9332886
	c0.0141296-0.1134033,0.0290833-0.2266541,0.0400696-0.3402405c0.0386658-0.3986053,0.0648804-0.7976685,0.0648804-1.1970825
	v-16.2383728C432.0619202,150.1071625,432.0357056,150.5060425,431.9970398,150.904541z" />
	<path fill="#0E0E0F" d="M431.9970398,146.8396606c0,0.0001068,0,0.0002289,0,0.0003357
	c-0.0071716,0.073761-0.0168457,0.147522-0.026062,0.2212219c-0.0049133,0.0397186-0.0090942,0.079422-0.0140076,0.1191406
	c-0.0388489,0.3112793-0.0895386,0.6221161-0.1518555,0.932312c-0.0093994,0.046524-0.0175781,0.0930481-0.0274048,0.1395721
	c-0.0097961,0.0521851-0.0190735,0.1044312-0.0307922,0.1565552c-0.0849915,0.3771515-0.1844177,0.7534332-0.3040161,1.1281891
	c-0.0163879,0.0512695-0.0364685,0.1021881-0.0545349,0.1532288c-0.0029297,0.0086975-0.0063477,0.017395-0.0092773,0.0260925
	c-0.1060791,0.3173065-0.2244873,0.6335144-0.3553467,0.9484558c-0.0354309,0.0852661-0.073761,0.1701813-0.1116333,0.2552185
	c-0.0145569,0.0326691-0.0283203,0.0654602-0.0429382,0.0981293c-0.0000305,0.000061-0.0000305,0.0001221-0.0000916,0.0001678
	c-0.1199951,0.2690582-0.2495117,0.5370941-0.3875732,0.8040314c-0.0578613,0.1118622-0.1136475,0.2240295-0.1747131,0.335495
	c-0.2011719,0.3674164-0.414093,0.7333527-0.6496277,1.0959625c-1.628479,2.4975739-3.948822,4.7250977-6.9442139,6.8767548
	c-2.9447632,2.1178436-6.395813,4.0585327-9.9227295,5.9232788c-1.628479,0.8564301-3.2738342,1.7001648-4.9360962,2.5354919
	c-1.95755,0.9998932-3.9403992,1.9870911-5.9232483,2.9785156l-62.042511,31.0212555
	c-1.9828491,0.9914246-3.9573059,1.9786682-5.9486084,2.9616241c-1.6790771,0.8311615-3.3666077,1.6538391-5.0794678,2.4638062
	c-3.7294922,1.7677002-7.6108093,3.4932251-11.8465576,4.9656067c-4.2947693,1.4934845-8.7583618,2.6578979-13.7535095,3.467926
	c-4.9107056,0.8015747-10.0577087,1.2065887-15.2131042,1.2065887c-5.1639404,0-10.3109436-0.405014-15.2216797-1.2065887
	c-4.9951172-0.8100281-9.4586487-1.9744415-13.7619019-3.467926c-4.2272797-1.4723816-8.1086426-3.1979065-11.8381348-4.9656067
	c-1.7128143-0.809967-3.4003448-1.6326447-5.0794678-2.4595642c-1.991333-0.9871979-3.9657135-1.9744415-5.9486237-2.9658661
	l-35.0248871-17.5124817l-27.0175476-13.5087738c-1.9829102-0.9914246-3.9657745-1.9786224-5.9317474-2.9785156
	c-1.6537628-0.8353271-3.299118-1.6790619-4.9191895-2.5354919c-3.5354004-1.8647461-6.9863892-3.8054352-9.9311981-5.9232788
	c-2.9953461-2.1516571-5.3157501-4.3791809-6.9442291-6.8809814c-1.5947113-2.4511566-2.4047394-5.0246582-2.4047394-7.6065674
	v16.2383728c0,2.5819702,0.8100281,5.1554718,2.4047394,7.6066284c1.628479,2.5017395,3.9488831,4.7293243,6.9442291,6.8809204
	c2.944809,2.1179047,6.3957977,4.0585327,9.9311981,5.9232788c1.6200714,0.8564301,3.2654266,1.7002258,4.9191895,2.535553
	c1.9659729,0.9998322,3.9488373,1.9870911,5.9317474,2.9785156l27.0175476,13.5087738l35.0248871,17.5124817
	c1.9829102,0.9914246,3.9572906,1.9786072,5.9486237,2.9658051c1.6791229,0.8269196,3.3666534,1.6495972,5.0794678,2.4596252
	c3.7294922,1.7677002,7.6108551,3.4932251,11.8381348,4.9656067c4.3032532,1.4934235,8.7667847,2.6578369,13.7619019,3.467865
	c4.9107361,0.8015747,10.0577393,1.2065887,15.2216797,1.2065887c5.1553955,0,10.3023987-0.405014,15.2131042-1.2065887
	c4.9951477-0.8100281,9.4587402-1.9744415,13.7535095-3.467865c4.2357483-1.4723816,8.1170654-3.1979065,11.8465576-4.9656067
	c1.7128601-0.8100281,3.4003906-1.6327057,5.0794678-2.4638062c1.9913025-0.983017,3.9657593-1.9701996,5.9486084-2.9616241
	l62.042511-31.0212555c1.9828491-0.9914246,3.9656982-1.9786835,5.9232483-2.9785156
	c1.662262-0.8353271,3.3076172-1.6791229,4.9360962-2.535553c3.5269165-1.8647461,6.9779663-3.8053741,9.9227295-5.9232788
	c2.9953918-2.1515961,5.3157349-4.3791809,6.9442139-6.8767548c0.2355347-0.3626709,0.4484558-0.7285461,0.6496887-1.0960236
	c0.0610046-0.1113586,0.1165771-0.2232819,0.174408-0.3349762c0.1383057-0.2672882,0.2679138-0.5355988,0.388092-0.8049927
	c0.0524597-0.1175385,0.1054077-0.2349548,0.1543884-0.35289c0.1308594-0.3150635,0.2492676-0.6312714,0.3553467-0.9486237
	c0.0200195-0.0599213,0.0446777-0.1193085,0.0638123-0.1792755c0.1195984-0.3748016,0.2190857-0.7510986,0.3040771-1.1283112
	c0.006958-0.0309448,0.0181885-0.0616302,0.0249329-0.0925751c0.0146484-0.0673523,0.0194702-0.1351013,0.03302-0.2025146
	c0.0623779-0.3105927,0.1131897-0.6215973,0.1520386-0.9332886c0.0141296-0.1134186,0.0290833-0.2266541,0.0400696-0.3402405
	c0.0386658-0.3986053,0.0648804-0.7976685,0.0648804-1.1970825v-16.2383728
	C432.0619202,146.0422668,432.0357056,146.4411621,431.9970398,146.8396606z" />
	<path fill="#C1C1C3" d="M271.6259155,116.1687622c28.5069275,0.0000839,55.3842468,6.1570053,68.2282104,16.8856354
	c0.3797302,0.3206329,0.7256165,0.6412811,1.0800171,0.9661255c24.5052185,1.2642517,36.4671631,9.7236786,33.4641418,9.7236786
	c-3.1983032-0.4854584-5.7504578-0.6840515-8.0825195-0.6839142c-12.3074036,0.0007324-18.4203186,5.5366058-20.6902466,9.122406
	c-0.1940308,0.3712616-0.4049988,0.7425079-0.6243896,1.1095581c-5.5604248,9.0789948-20.7904968,17.1580963-43.3529663,21.6553955
	c-11.7269592,2.3396301-24.0983276,3.4463806-36.1817017,3.4463806c-7.4176025,0-14.7288666-0.4174652-21.7094116-1.223053
	c6.2354279-0.468277,12.4456177-1.2445526,18.5039062-2.3372345c24.4946594-4.4340363,40.6781921-13.0911102,45.2767639-22.6468201
	c-10.4812012,0.6845093-21.0997009,0.9547729-31.5314331,0.9547729c-19.271759,0-37.8984985-0.9229736-53.790741-1.8618317
	c-4.5310669-0.1898499-8.9777222-0.5231323-13.2134552-1.0504913c24.7646942-0.5484619,60.0596466-3.332901,71.5011749-4.9402771
	c-31.9958038-0.4387665-65.9491577-3.7041626-64.6581726-3.7041626c0.5223999,0.0009766,1.0430603,0.0014648,1.5626068,0.0014648
	c48.4015045,0,82.408432-4.0213318,84.198288-4.2329865c1.3247375-0.1898499,2.3287964-0.3206329,3.1641235-0.4049988
	c-0.7256165-0.8269043-1.5271912-1.6495819-2.4553833-2.4595947c-10.3868103-9.1085129-31.1435547-15.0824127-54.6088562-16.854332
	C255.6273804,116.6459045,263.6895142,116.1687317,271.6259155,116.1687622z" />
	<g>
		<path fill="#C1C1C3" d="M806.4595337,47.4618149v30.7998047H751.300354v165.1992188h-32.2001953V78.2616196h-55.4394531V47.4618149
		H806.4595337z" />
		<path fill="#C1C1C3" d="M816.8198853,225.8207092c-14.2802734-14.2797852-21.5605469-31.6396484-21.5605469-52.359375
		c0-20.7202148,7.2802734-38.0800781,21.5605469-52.3598709c14.2792969-14.2802734,31.9189453-21.2797852,52.359375-21.2797852
		c20.7197266,0,38.0800781,6.9995117,52.359375,21.2797852c14.2802734,14.2797928,21.5605469,31.6396561,21.5605469,52.3598709
		c0,20.7197266-7.2802734,38.0795898-21.5605469,52.359375c-14.2792969,14.2802734-31.6396484,21.2802734-52.359375,21.2802734
		C848.7388306,247.1009827,831.0991821,240.1009827,816.8198853,225.8207092z M869.1792603,217.7010803
		c12.3203125,0,22.6796875-4.2001953,31.0800781-12.6000977c8.3994141-8.3999023,12.5996094-19.0400391,12.5996094-31.6396484
		c0-12.6000977-4.2001953-23.2402344-12.5996094-31.6401367c-8.4003906-8.3999023-18.7597656-12.5996094-31.0800781-12.5996094
		s-22.6796875,4.199707-31.0800781,12.5996094c-8.3994141,8.3999023-12.5996094,19.0400391-12.5996094,31.6401367
		c0,12.5996094,4.2001953,23.2397461,12.5996094,31.6396484
		C846.4995728,213.500885,856.8589478,217.7010803,869.1792603,217.7010803z" />
		<path fill="#C1C1C3" d="M1081.4165039,103.4613266h30.2402344v139.9995117h-30.2402344v-20.1601562
		c-11.4804688,15.9599609-27.7197266,23.800293-49,23.800293c-19.3192749,0-35.5595093-7-49.2792358-21.2802734
		c-13.7207031-14.2797852-20.4404297-31.9194336-20.4404297-52.359375c0-20.7202148,6.7197266-38.0800781,20.4404297-52.3598709
		c13.7197266-14.2802734,29.9599609-21.2797852,49.2792358-21.2797852c21.2802734,0,37.5195312,7.8398438,49,23.5195312V103.4613266
		z M1037.1762695,218.2611389c12.6005859,0,23.2402344-4.2001953,31.640625-12.6000977
		c8.3994141-8.6801758,12.5996094-19.3198242,12.5996094-32.199707c0-12.8803711-4.2001953-23.5200195-12.5996094-31.9199219
		c-8.4003906-8.6801758-19.0400391-12.8798828-31.640625-12.8798828c-12.5996094,0-23.2391968,4.199707-31.6395874,12.8798828
		c-8.3994141,8.3999023-12.5996094,19.0395508-12.5996094,31.9199219c0,12.8798828,4.2001953,23.5195312,12.5996094,32.199707
		C1013.9370728,214.0609436,1024.5766602,218.2611389,1037.1762695,218.2611389z" />
		<path fill="#C1C1C3" d="M1199.5766602,160.301178c21.5595703,4.7602539,49.5595703,13.7202148,48.9990234,43.6796875
		c0,13.4399414-5.3193359,24.0800781-15.6796875,31.6401367c-10.359375,7.5600586-23.2402344,11.4799805-38.9199219,11.4799805
		c-27.7197266,0-48.1591797-12.3203125-57.1191406-32.7602539l26.0390625-15.1196289
		c4.7607422,13.4399414,15.1201172,20.159668,31.0800781,20.159668s23.7998047-5.3198242,23.7998047-15.6796875
		c0-8.9599609-11.7597656-14.2797852-26.5996094-17.9199219c-21-5.3198242-49.2802734-13.7202148-48.7197266-43.1201172
		c0-12.8798828,4.7597656-23.2397537,14.5595703-31.0795975s22.1201172-11.7597656,36.6796875-11.7597656
		c23.2402344,0,42,10.9199219,51.7998047,29.1196365l-25.4794922,14.2797852
		c-4.7597656-10.6396484-13.7197266-15.9599686-26.3203125-15.9599686c-11.4794922,0-20.4394531,5.0400467-20.4394531,14.8403397
		C1173.2563477,151.341217,1185.0161133,156.1014709,1199.5766602,160.301178z" />
		<path fill="#C1C1C3" d="M1347.699707,132.5814514h-34.7197266v67.199707c0,17.9199219,11.7597656,17.6396484,34.7197266,16.5200195
		v27.159668c-46.2001953,5.6000977-64.9599609-7-64.9599609-43.6796875v-67.199707h-25.7597656v-29.1201248h25.7597656V73.2215805
		l30.2402344-8.9599609v39.199707h34.7197266V132.5814514z" />
		<path fill="#C1C1C3" d="M1380.4555664,47.4618149h14.8398438v130.4794922
		c0,32.7597656,20.7207031,54.3193359,56.8398438,54.3193359c36.1201172,0,57.1201172-21.5595703,57.1201172-54.3193359V47.4618149
		h14.8398438v130.4794922c0,20.7197266-6.7197266,37.2397461-19.8798828,49.8398438
		c-13.1601562,12.5996094-30.5195312,18.7597656-52.0800781,18.7597656c-21.5595703,0-38.9199219-6.1601562-52.0791016-18.7597656
		c-13.1601562-12.6000977-19.6005859-29.1201172-19.6005859-49.8398438V47.4618149z" />
		<path fill="#C1C1C3" d="M1570.0141602,47.4618149h14.8398438v195.9990234h-14.8398438V47.4618149z" />
	</g>
</svg>